solid OpenSCAD_Model
  facet normal -1 0 0
    outer loop
      vertex 0 0 0
      vertex 0 16 2
      vertex 0 16 0
    endloop
  endfacet
  facet normal -1 -0 0
    outer loop
      vertex 0 16 2
      vertex 0 0 0
      vertex 0 0 2
    endloop
  endfacet
  facet normal 1 -0 0
    outer loop
      vertex 16 0 2
      vertex 16 16 0
      vertex 16 16 2
    endloop
  endfacet
  facet normal 1 0 0
    outer loop
      vertex 16 16 0
      vertex 16 0 2
      vertex 16 0 0
    endloop
  endfacet
  facet normal 0 1 -0
    outer loop
      vertex 16 16 0
      vertex 0 16 2
      vertex 16 16 2
    endloop
  endfacet
  facet normal 0 1 0
    outer loop
      vertex 0 16 2
      vertex 16 16 0
      vertex 0 16 0
    endloop
  endfacet
  facet normal 0 0 -1
    outer loop
      vertex 1 12 0
      vertex 3 13 0
      vertex 3 12 0
    endloop
  endfacet
  facet normal -0 0 -1
    outer loop
      vertex 3 13 0
      vertex 1 12 0
      vertex 1 13 0
    endloop
  endfacet
  facet normal 0 0 -1
    outer loop
      vertex 1 9 0
      vertex 3 10 0
      vertex 3 9 0
    endloop
  endfacet
  facet normal -0 0 -1
    outer loop
      vertex 3 10 0
      vertex 1 9 0
      vertex 1 10 0
    endloop
  endfacet
  facet normal 0 0 -1
    outer loop
      vertex 1 6 0
      vertex 3 7 0
      vertex 3 6 0
    endloop
  endfacet
  facet normal -0 0 -1
    outer loop
      vertex 3 7 0
      vertex 1 6 0
      vertex 1 7 0
    endloop
  endfacet
  facet normal 0 0 -1
    outer loop
      vertex 1 3 0
      vertex 3 4 0
      vertex 3 3 0
    endloop
  endfacet
  facet normal -0 0 -1
    outer loop
      vertex 3 4 0
      vertex 1 3 0
      vertex 1 4 0
    endloop
  endfacet
  facet normal 0 0 -1
    outer loop
      vertex 4 12 0
      vertex 6 13 0
      vertex 6 12 0
    endloop
  endfacet
  facet normal -0 0 -1
    outer loop
      vertex 6 13 0
      vertex 4 12 0
      vertex 4 13 0
    endloop
  endfacet
  facet normal 0 0 -1
    outer loop
      vertex 4 9 0
      vertex 6 10 0
      vertex 6 9 0
    endloop
  endfacet
  facet normal -0 0 -1
    outer loop
      vertex 6 10 0
      vertex 4 9 0
      vertex 4 10 0
    endloop
  endfacet
  facet normal 0 0 -1
    outer loop
      vertex 4 6 0
      vertex 6 7 0
      vertex 6 6 0
    endloop
  endfacet
  facet normal -0 0 -1
    outer loop
      vertex 6 7 0
      vertex 4 6 0
      vertex 4 7 0
    endloop
  endfacet
  facet normal 0 0 -1
    outer loop
      vertex 4 3 0
      vertex 6 4 0
      vertex 6 3 0
    endloop
  endfacet
  facet normal -0 0 -1
    outer loop
      vertex 6 4 0
      vertex 4 3 0
      vertex 4 4 0
    endloop
  endfacet
  facet normal 0 0 -1
    outer loop
      vertex 7 12 0
      vertex 9 13 0
      vertex 9 12 0
    endloop
  endfacet
  facet normal -0 0 -1
    outer loop
      vertex 9 13 0
      vertex 7 12 0
      vertex 7 13 0
    endloop
  endfacet
  facet normal 0 0 -1
    outer loop
      vertex 7 9 0
      vertex 9 10 0
      vertex 9 9 0
    endloop
  endfacet
  facet normal -0 0 -1
    outer loop
      vertex 9 10 0
      vertex 7 9 0
      vertex 7 10 0
    endloop
  endfacet
  facet normal 0 0 -1
    outer loop
      vertex 7 6 0
      vertex 9 7 0
      vertex 9 6 0
    endloop
  endfacet
  facet normal -0 0 -1
    outer loop
      vertex 9 7 0
      vertex 7 6 0
      vertex 7 7 0
    endloop
  endfacet
  facet normal 0 0 -1
    outer loop
      vertex 7 3 0
      vertex 9 4 0
      vertex 9 3 0
    endloop
  endfacet
  facet normal -0 0 -1
    outer loop
      vertex 9 4 0
      vertex 7 3 0
      vertex 7 4 0
    endloop
  endfacet
  facet normal 0 0 -1
    outer loop
      vertex 10 12 0
      vertex 12 13 0
      vertex 12 12 0
    endloop
  endfacet
  facet normal -0 0 -1
    outer loop
      vertex 12 13 0
      vertex 10 12 0
      vertex 10 13 0
    endloop
  endfacet
  facet normal 0 0 -1
    outer loop
      vertex 10 9 0
      vertex 12 10 0
      vertex 12 9 0
    endloop
  endfacet
  facet normal -0 0 -1
    outer loop
      vertex 12 10 0
      vertex 10 9 0
      vertex 10 10 0
    endloop
  endfacet
  facet normal 0 0 -1
    outer loop
      vertex 10 6 0
      vertex 12 7 0
      vertex 12 6 0
    endloop
  endfacet
  facet normal -0 0 -1
    outer loop
      vertex 12 7 0
      vertex 10 6 0
      vertex 10 7 0
    endloop
  endfacet
  facet normal 0 0 -1
    outer loop
      vertex 10 3 0
      vertex 12 4 0
      vertex 12 3 0
    endloop
  endfacet
  facet normal -0 0 -1
    outer loop
      vertex 12 4 0
      vertex 10 3 0
      vertex 10 4 0
    endloop
  endfacet
  facet normal 0 0 -1
    outer loop
      vertex 13 12 0
      vertex 15 13 0
      vertex 15 12 0
    endloop
  endfacet
  facet normal -0 0 -1
    outer loop
      vertex 15 13 0
      vertex 13 12 0
      vertex 13 13 0
    endloop
  endfacet
  facet normal 0 0 -1
    outer loop
      vertex 13 9 0
      vertex 15 10 0
      vertex 15 9 0
    endloop
  endfacet
  facet normal -0 0 -1
    outer loop
      vertex 15 10 0
      vertex 13 9 0
      vertex 13 10 0
    endloop
  endfacet
  facet normal 0 0 -1
    outer loop
      vertex 13 6 0
      vertex 15 7 0
      vertex 15 6 0
    endloop
  endfacet
  facet normal -0 0 -1
    outer loop
      vertex 15 7 0
      vertex 13 6 0
      vertex 13 7 0
    endloop
  endfacet
  facet normal 0 0 -1
    outer loop
      vertex 13 3 0
      vertex 15 4 0
      vertex 15 3 0
    endloop
  endfacet
  facet normal -0 0 -1
    outer loop
      vertex 15 4 0
      vertex 13 3 0
      vertex 13 4 0
    endloop
  endfacet
  facet normal 0 0 -1
    outer loop
      vertex 15 3 0
      vertex 16 0 0
      vertex 15 1 0
    endloop
  endfacet
  facet normal 0 0 -1
    outer loop
      vertex 16 0 0
      vertex 13 1 0
      vertex 15 1 0
    endloop
  endfacet
  facet normal 0 0 -1
    outer loop
      vertex 12 3 0
      vertex 13 3 0
      vertex 13 1 0
    endloop
  endfacet
  facet normal 0 0 -1
    outer loop
      vertex 13 3 0
      vertex 12 3 0
      vertex 13 4 0
    endloop
  endfacet
  facet normal 0 0 -1
    outer loop
      vertex 13 4 0
      vertex 12 4 0
      vertex 13 6 0
    endloop
  endfacet
  facet normal 0 0 -1
    outer loop
      vertex 12 6 0
      vertex 13 6 0
      vertex 12 4 0
    endloop
  endfacet
  facet normal 0 0 -1
    outer loop
      vertex 12 7 0
      vertex 13 7 0
      vertex 12 6 0
    endloop
  endfacet
  facet normal 0 0 -1
    outer loop
      vertex 13 7 0
      vertex 12 7 0
      vertex 13 9 0
    endloop
  endfacet
  facet normal 0 0 -1
    outer loop
      vertex 13 9 0
      vertex 12 9 0
      vertex 13 10 0
    endloop
  endfacet
  facet normal 0 0 -1
    outer loop
      vertex 12 10 0
      vertex 13 10 0
      vertex 12 9 0
    endloop
  endfacet
  facet normal 0 0 -1
    outer loop
      vertex 12 3 0
      vertex 13 1 0
      vertex 12 1 0
    endloop
  endfacet
  facet normal 0 0 -1
    outer loop
      vertex 16 0 0
      vertex 12 1 0
      vertex 13 1 0
    endloop
  endfacet
  facet normal 0 0 -1
    outer loop
      vertex 16 0 0
      vertex 10 1 0
      vertex 12 1 0
    endloop
  endfacet
  facet normal 0 0 -1
    outer loop
      vertex 9 3 0
      vertex 10 3 0
      vertex 10 1 0
    endloop
  endfacet
  facet normal 0 0 -1
    outer loop
      vertex 10 3 0
      vertex 9 3 0
      vertex 10 4 0
    endloop
  endfacet
  facet normal 0 0 -1
    outer loop
      vertex 10 4 0
      vertex 9 4 0
      vertex 10 6 0
    endloop
  endfacet
  facet normal 0 0 -1
    outer loop
      vertex 9 6 0
      vertex 10 6 0
      vertex 9 4 0
    endloop
  endfacet
  facet normal 0 0 -1
    outer loop
      vertex 9 7 0
      vertex 10 7 0
      vertex 9 6 0
    endloop
  endfacet
  facet normal 0 0 -1
    outer loop
      vertex 10 7 0
      vertex 9 7 0
      vertex 10 9 0
    endloop
  endfacet
  facet normal 0 0 -1
    outer loop
      vertex 10 9 0
      vertex 9 9 0
      vertex 10 10 0
    endloop
  endfacet
  facet normal 0 0 -1
    outer loop
      vertex 9 10 0
      vertex 10 10 0
      vertex 9 9 0
    endloop
  endfacet
  facet normal 0 0 -1
    outer loop
      vertex 9 3 0
      vertex 10 1 0
      vertex 9 1 0
    endloop
  endfacet
  facet normal 0 0 -1
    outer loop
      vertex 16 0 0
      vertex 9 1 0
      vertex 10 1 0
    endloop
  endfacet
  facet normal 0 0 -1
    outer loop
      vertex 16 0 0
      vertex 7 1 0
      vertex 9 1 0
    endloop
  endfacet
  facet normal 0 0 -1
    outer loop
      vertex 6 3 0
      vertex 7 3 0
      vertex 7 1 0
    endloop
  endfacet
  facet normal 0 0 -1
    outer loop
      vertex 7 3 0
      vertex 6 3 0
      vertex 7 4 0
    endloop
  endfacet
  facet normal 0 0 -1
    outer loop
      vertex 7 4 0
      vertex 6 4 0
      vertex 7 6 0
    endloop
  endfacet
  facet normal 0 0 -1
    outer loop
      vertex 6 6 0
      vertex 7 6 0
      vertex 6 4 0
    endloop
  endfacet
  facet normal 0 0 -1
    outer loop
      vertex 6 7 0
      vertex 7 7 0
      vertex 6 6 0
    endloop
  endfacet
  facet normal 0 0 -1
    outer loop
      vertex 7 7 0
      vertex 6 7 0
      vertex 7 9 0
    endloop
  endfacet
  facet normal 0 0 -1
    outer loop
      vertex 7 9 0
      vertex 6 9 0
      vertex 7 10 0
    endloop
  endfacet
  facet normal 0 0 -1
    outer loop
      vertex 6 10 0
      vertex 7 10 0
      vertex 6 9 0
    endloop
  endfacet
  facet normal 0 0 -1
    outer loop
      vertex 6 3 0
      vertex 7 1 0
      vertex 6 1 0
    endloop
  endfacet
  facet normal 0 0 -1
    outer loop
      vertex 0 0 0
      vertex 7 1 0
      vertex 16 0 0
    endloop
  endfacet
  facet normal -0 0 -1
    outer loop
      vertex 7 1 0
      vertex 0 0 0
      vertex 6 1 0
    endloop
  endfacet
  facet normal 0 0 -1
    outer loop
      vertex 3 3 0
      vertex 4 3 0
      vertex 4 1 0
    endloop
  endfacet
  facet normal 0 0 -1
    outer loop
      vertex 4 3 0
      vertex 3 3 0
      vertex 4 4 0
    endloop
  endfacet
  facet normal 0 0 -1
    outer loop
      vertex 4 4 0
      vertex 3 4 0
      vertex 4 6 0
    endloop
  endfacet
  facet normal 0 0 -1
    outer loop
      vertex 3 6 0
      vertex 4 6 0
      vertex 3 4 0
    endloop
  endfacet
  facet normal 0 0 -1
    outer loop
      vertex 3 7 0
      vertex 4 7 0
      vertex 3 6 0
    endloop
  endfacet
  facet normal 0 0 -1
    outer loop
      vertex 4 7 0
      vertex 3 7 0
      vertex 4 9 0
    endloop
  endfacet
  facet normal 0 0 -1
    outer loop
      vertex 4 9 0
      vertex 3 9 0
      vertex 4 10 0
    endloop
  endfacet
  facet normal 0 0 -1
    outer loop
      vertex 3 10 0
      vertex 4 10 0
      vertex 3 9 0
    endloop
  endfacet
  facet normal 0 0 -1
    outer loop
      vertex 3 3 0
      vertex 4 1 0
      vertex 3 1 0
    endloop
  endfacet
  facet normal -0 0 -1
    outer loop
      vertex 6 1 0
      vertex 0 0 0
      vertex 4 1 0
    endloop
  endfacet
  facet normal -0 0 -1
    outer loop
      vertex 4 1 0
      vertex 0 0 0
      vertex 3 1 0
    endloop
  endfacet
  facet normal 0 0 -1
    outer loop
      vertex 0 0 0
      vertex 1 3 0
      vertex 1 1 0
    endloop
  endfacet
  facet normal -0 0 -1
    outer loop
      vertex 1 3 0
      vertex 0 0 0
      vertex 1 4 0
    endloop
  endfacet
  facet normal -0 0 -1
    outer loop
      vertex 1 4 0
      vertex 0 0 0
      vertex 1 6 0
    endloop
  endfacet
  facet normal -0 0 -1
    outer loop
      vertex 1 6 0
      vertex 0 0 0
      vertex 1 7 0
    endloop
  endfacet
  facet normal -0 0 -1
    outer loop
      vertex 1 7 0
      vertex 0 0 0
      vertex 1 9 0
    endloop
  endfacet
  facet normal 0 0 -1
    outer loop
      vertex 0 16 0
      vertex 1 9 0
      vertex 0 0 0
    endloop
  endfacet
  facet normal 0 0 -1
    outer loop
      vertex 1 9 0
      vertex 0 16 0
      vertex 1 10 0
    endloop
  endfacet
  facet normal 0 0 -1
    outer loop
      vertex 1 10 0
      vertex 0 16 0
      vertex 1 12 0
    endloop
  endfacet
  facet normal 0 0 -1
    outer loop
      vertex 1 12 0
      vertex 0 16 0
      vertex 1 13 0
    endloop
  endfacet
  facet normal -0 0 -1
    outer loop
      vertex 3 1 0
      vertex 0 0 0
      vertex 1 1 0
    endloop
  endfacet
  facet normal 0 0 -1
    outer loop
      vertex 15 4 0
      vertex 16 0 0
      vertex 15 3 0
    endloop
  endfacet
  facet normal 0 0 -1
    outer loop
      vertex 15 6 0
      vertex 16 0 0
      vertex 15 4 0
    endloop
  endfacet
  facet normal 0 0 -1
    outer loop
      vertex 15 7 0
      vertex 16 0 0
      vertex 15 6 0
    endloop
  endfacet
  facet normal 0 0 -1
    outer loop
      vertex 16 0 0
      vertex 15 7 0
      vertex 16 16 0
    endloop
  endfacet
  facet normal 0 0 -1
    outer loop
      vertex 15 9 0
      vertex 16 16 0
      vertex 15 7 0
    endloop
  endfacet
  facet normal 0 0 -1
    outer loop
      vertex 15 10 0
      vertex 16 16 0
      vertex 15 9 0
    endloop
  endfacet
  facet normal 0 0 -1
    outer loop
      vertex 15 12 0
      vertex 16 16 0
      vertex 15 10 0
    endloop
  endfacet
  facet normal 0 0 -1
    outer loop
      vertex 15 13 0
      vertex 16 16 0
      vertex 15 12 0
    endloop
  endfacet
  facet normal 0 0 -1
    outer loop
      vertex 15 15 0
      vertex 16 16 0
      vertex 15 13 0
    endloop
  endfacet
  facet normal 0 0 -1
    outer loop
      vertex 13 15 0
      vertex 16 16 0
      vertex 15 15 0
    endloop
  endfacet
  facet normal -0 0 -1
    outer loop
      vertex 13 4 0
      vertex 12 3 0
      vertex 12 4 0
    endloop
  endfacet
  facet normal 0 0 -1
    outer loop
      vertex 13 6 0
      vertex 12 6 0
      vertex 13 7 0
    endloop
  endfacet
  facet normal 0 0 -1
    outer loop
      vertex 12 9 0
      vertex 13 9 0
      vertex 12 7 0
    endloop
  endfacet
  facet normal 0 0 -1
    outer loop
      vertex 13 10 0
      vertex 12 10 0
      vertex 13 12 0
    endloop
  endfacet
  facet normal 0 0 -1
    outer loop
      vertex 12 12 0
      vertex 13 12 0
      vertex 12 10 0
    endloop
  endfacet
  facet normal 0 0 -1
    outer loop
      vertex 13 12 0
      vertex 12 12 0
      vertex 13 13 0
    endloop
  endfacet
  facet normal 0 0 -1
    outer loop
      vertex 12 13 0
      vertex 13 13 0
      vertex 12 12 0
    endloop
  endfacet
  facet normal 0 0 -1
    outer loop
      vertex 13 13 0
      vertex 12 13 0
      vertex 13 15 0
    endloop
  endfacet
  facet normal 0 0 -1
    outer loop
      vertex 12 15 0
      vertex 13 15 0
      vertex 12 13 0
    endloop
  endfacet
  facet normal 0 0 -1
    outer loop
      vertex 12 15 0
      vertex 16 16 0
      vertex 13 15 0
    endloop
  endfacet
  facet normal 0 0 -1
    outer loop
      vertex 10 15 0
      vertex 16 16 0
      vertex 12 15 0
    endloop
  endfacet
  facet normal -0 0 -1
    outer loop
      vertex 10 4 0
      vertex 9 3 0
      vertex 9 4 0
    endloop
  endfacet
  facet normal 0 0 -1
    outer loop
      vertex 10 6 0
      vertex 9 6 0
      vertex 10 7 0
    endloop
  endfacet
  facet normal 0 0 -1
    outer loop
      vertex 9 9 0
      vertex 10 9 0
      vertex 9 7 0
    endloop
  endfacet
  facet normal 0 0 -1
    outer loop
      vertex 10 10 0
      vertex 9 10 0
      vertex 10 12 0
    endloop
  endfacet
  facet normal 0 0 -1
    outer loop
      vertex 9 12 0
      vertex 10 12 0
      vertex 9 10 0
    endloop
  endfacet
  facet normal 0 0 -1
    outer loop
      vertex 10 12 0
      vertex 9 12 0
      vertex 10 13 0
    endloop
  endfacet
  facet normal 0 0 -1
    outer loop
      vertex 9 13 0
      vertex 10 13 0
      vertex 9 12 0
    endloop
  endfacet
  facet normal 0 0 -1
    outer loop
      vertex 10 13 0
      vertex 9 13 0
      vertex 10 15 0
    endloop
  endfacet
  facet normal 0 0 -1
    outer loop
      vertex 9 15 0
      vertex 10 15 0
      vertex 9 13 0
    endloop
  endfacet
  facet normal 0 0 -1
    outer loop
      vertex 9 15 0
      vertex 16 16 0
      vertex 10 15 0
    endloop
  endfacet
  facet normal 0 0 -1
    outer loop
      vertex 7 15 0
      vertex 16 16 0
      vertex 9 15 0
    endloop
  endfacet
  facet normal -0 0 -1
    outer loop
      vertex 7 4 0
      vertex 6 3 0
      vertex 6 4 0
    endloop
  endfacet
  facet normal 0 0 -1
    outer loop
      vertex 7 6 0
      vertex 6 6 0
      vertex 7 7 0
    endloop
  endfacet
  facet normal 0 0 -1
    outer loop
      vertex 6 9 0
      vertex 7 9 0
      vertex 6 7 0
    endloop
  endfacet
  facet normal 0 0 -1
    outer loop
      vertex 7 10 0
      vertex 6 10 0
      vertex 7 12 0
    endloop
  endfacet
  facet normal 0 0 -1
    outer loop
      vertex 6 12 0
      vertex 7 12 0
      vertex 6 10 0
    endloop
  endfacet
  facet normal 0 0 -1
    outer loop
      vertex 7 12 0
      vertex 6 12 0
      vertex 7 13 0
    endloop
  endfacet
  facet normal 0 0 -1
    outer loop
      vertex 6 13 0
      vertex 7 13 0
      vertex 6 12 0
    endloop
  endfacet
  facet normal 0 0 -1
    outer loop
      vertex 7 13 0
      vertex 6 13 0
      vertex 7 15 0
    endloop
  endfacet
  facet normal 0 0 -1
    outer loop
      vertex 6 15 0
      vertex 7 15 0
      vertex 6 13 0
    endloop
  endfacet
  facet normal 0 0 -1
    outer loop
      vertex 0 16 0
      vertex 7 15 0
      vertex 6 15 0
    endloop
  endfacet
  facet normal 0 0 -1
    outer loop
      vertex 0 16 0
      vertex 6 15 0
      vertex 4 15 0
    endloop
  endfacet
  facet normal -0 0 -1
    outer loop
      vertex 4 4 0
      vertex 3 3 0
      vertex 3 4 0
    endloop
  endfacet
  facet normal 0 0 -1
    outer loop
      vertex 4 6 0
      vertex 3 6 0
      vertex 4 7 0
    endloop
  endfacet
  facet normal 0 0 -1
    outer loop
      vertex 3 9 0
      vertex 4 9 0
      vertex 3 7 0
    endloop
  endfacet
  facet normal 0 0 -1
    outer loop
      vertex 4 10 0
      vertex 3 10 0
      vertex 4 12 0
    endloop
  endfacet
  facet normal 0 0 -1
    outer loop
      vertex 3 12 0
      vertex 4 12 0
      vertex 3 10 0
    endloop
  endfacet
  facet normal 0 0 -1
    outer loop
      vertex 4 12 0
      vertex 3 12 0
      vertex 4 13 0
    endloop
  endfacet
  facet normal 0 0 -1
    outer loop
      vertex 3 13 0
      vertex 4 13 0
      vertex 3 12 0
    endloop
  endfacet
  facet normal 0 0 -1
    outer loop
      vertex 4 13 0
      vertex 3 13 0
      vertex 4 15 0
    endloop
  endfacet
  facet normal 0 0 -1
    outer loop
      vertex 3 15 0
      vertex 4 15 0
      vertex 3 13 0
    endloop
  endfacet
  facet normal 0 0 -1
    outer loop
      vertex 0 16 0
      vertex 4 15 0
      vertex 3 15 0
    endloop
  endfacet
  facet normal 0 0 -1
    outer loop
      vertex 0 16 0
      vertex 3 15 0
      vertex 1 15 0
    endloop
  endfacet
  facet normal 0 0 -1
    outer loop
      vertex 7 15 0
      vertex 0 16 0
      vertex 16 16 0
    endloop
  endfacet
  facet normal 0 0 -1
    outer loop
      vertex 1 13 0
      vertex 0 16 0
      vertex 1 15 0
    endloop
  endfacet
  facet normal 0 -1 0
    outer loop
      vertex 0 0 0
      vertex 16 0 2
      vertex 0 0 2
    endloop
  endfacet
  facet normal 0 -1 -0
    outer loop
      vertex 16 0 2
      vertex 0 0 0
      vertex 16 0 0
    endloop
  endfacet
  facet normal 1 -0 0
    outer loop
      vertex 1 1 2
      vertex 1 3 0
      vertex 1 3 2
    endloop
  endfacet
  facet normal 1 0 0
    outer loop
      vertex 1 3 0
      vertex 1 1 2
      vertex 1 1 0
    endloop
  endfacet
  facet normal -0 0 1
    outer loop
      vertex 1 4 2
      vertex 3 3 2
      vertex 3 4 2
    endloop
  endfacet
  facet normal 0 0 1
    outer loop
      vertex 3 3 2
      vertex 1 4 2
      vertex 1 3 2
    endloop
  endfacet
  facet normal -0 0 1
    outer loop
      vertex 1 7 2
      vertex 3 6 2
      vertex 3 7 2
    endloop
  endfacet
  facet normal 0 0 1
    outer loop
      vertex 3 6 2
      vertex 1 7 2
      vertex 1 6 2
    endloop
  endfacet
  facet normal -0 0 1
    outer loop
      vertex 1 10 2
      vertex 3 9 2
      vertex 3 10 2
    endloop
  endfacet
  facet normal 0 0 1
    outer loop
      vertex 3 9 2
      vertex 1 10 2
      vertex 1 9 2
    endloop
  endfacet
  facet normal -0 0 1
    outer loop
      vertex 1 13 2
      vertex 3 12 2
      vertex 3 13 2
    endloop
  endfacet
  facet normal 0 0 1
    outer loop
      vertex 3 12 2
      vertex 1 13 2
      vertex 1 12 2
    endloop
  endfacet
  facet normal -0 0 1
    outer loop
      vertex 4 4 2
      vertex 6 3 2
      vertex 6 4 2
    endloop
  endfacet
  facet normal 0 0 1
    outer loop
      vertex 6 3 2
      vertex 4 4 2
      vertex 4 3 2
    endloop
  endfacet
  facet normal -0 0 1
    outer loop
      vertex 4 7 2
      vertex 6 6 2
      vertex 6 7 2
    endloop
  endfacet
  facet normal 0 0 1
    outer loop
      vertex 6 6 2
      vertex 4 7 2
      vertex 4 6 2
    endloop
  endfacet
  facet normal -0 0 1
    outer loop
      vertex 4 10 2
      vertex 6 9 2
      vertex 6 10 2
    endloop
  endfacet
  facet normal 0 0 1
    outer loop
      vertex 6 9 2
      vertex 4 10 2
      vertex 4 9 2
    endloop
  endfacet
  facet normal -0 0 1
    outer loop
      vertex 4 13 2
      vertex 6 12 2
      vertex 6 13 2
    endloop
  endfacet
  facet normal 0 0 1
    outer loop
      vertex 6 12 2
      vertex 4 13 2
      vertex 4 12 2
    endloop
  endfacet
  facet normal -0 0 1
    outer loop
      vertex 7 4 2
      vertex 9 3 2
      vertex 9 4 2
    endloop
  endfacet
  facet normal 0 0 1
    outer loop
      vertex 9 3 2
      vertex 7 4 2
      vertex 7 3 2
    endloop
  endfacet
  facet normal -0 0 1
    outer loop
      vertex 7 7 2
      vertex 9 6 2
      vertex 9 7 2
    endloop
  endfacet
  facet normal 0 0 1
    outer loop
      vertex 9 6 2
      vertex 7 7 2
      vertex 7 6 2
    endloop
  endfacet
  facet normal -0 0 1
    outer loop
      vertex 7 10 2
      vertex 9 9 2
      vertex 9 10 2
    endloop
  endfacet
  facet normal 0 0 1
    outer loop
      vertex 9 9 2
      vertex 7 10 2
      vertex 7 9 2
    endloop
  endfacet
  facet normal -0 0 1
    outer loop
      vertex 7 13 2
      vertex 9 12 2
      vertex 9 13 2
    endloop
  endfacet
  facet normal 0 0 1
    outer loop
      vertex 9 12 2
      vertex 7 13 2
      vertex 7 12 2
    endloop
  endfacet
  facet normal -0 0 1
    outer loop
      vertex 10 4 2
      vertex 12 3 2
      vertex 12 4 2
    endloop
  endfacet
  facet normal 0 0 1
    outer loop
      vertex 12 3 2
      vertex 10 4 2
      vertex 10 3 2
    endloop
  endfacet
  facet normal -0 0 1
    outer loop
      vertex 10 7 2
      vertex 12 6 2
      vertex 12 7 2
    endloop
  endfacet
  facet normal 0 0 1
    outer loop
      vertex 12 6 2
      vertex 10 7 2
      vertex 10 6 2
    endloop
  endfacet
  facet normal -0 0 1
    outer loop
      vertex 10 10 2
      vertex 12 9 2
      vertex 12 10 2
    endloop
  endfacet
  facet normal 0 0 1
    outer loop
      vertex 12 9 2
      vertex 10 10 2
      vertex 10 9 2
    endloop
  endfacet
  facet normal -0 0 1
    outer loop
      vertex 10 13 2
      vertex 12 12 2
      vertex 12 13 2
    endloop
  endfacet
  facet normal 0 0 1
    outer loop
      vertex 12 12 2
      vertex 10 13 2
      vertex 10 12 2
    endloop
  endfacet
  facet normal -0 0 1
    outer loop
      vertex 13 4 2
      vertex 15 3 2
      vertex 15 4 2
    endloop
  endfacet
  facet normal 0 0 1
    outer loop
      vertex 15 3 2
      vertex 13 4 2
      vertex 13 3 2
    endloop
  endfacet
  facet normal -0 0 1
    outer loop
      vertex 13 7 2
      vertex 15 6 2
      vertex 15 7 2
    endloop
  endfacet
  facet normal 0 0 1
    outer loop
      vertex 15 6 2
      vertex 13 7 2
      vertex 13 6 2
    endloop
  endfacet
  facet normal -0 0 1
    outer loop
      vertex 13 10 2
      vertex 15 9 2
      vertex 15 10 2
    endloop
  endfacet
  facet normal 0 0 1
    outer loop
      vertex 15 9 2
      vertex 13 10 2
      vertex 13 9 2
    endloop
  endfacet
  facet normal -0 0 1
    outer loop
      vertex 13 13 2
      vertex 15 12 2
      vertex 15 13 2
    endloop
  endfacet
  facet normal 0 0 1
    outer loop
      vertex 15 12 2
      vertex 13 13 2
      vertex 13 12 2
    endloop
  endfacet
  facet normal 0 0 1
    outer loop
      vertex 15 13 2
      vertex 16 16 2
      vertex 15 15 2
    endloop
  endfacet
  facet normal 0 0 1
    outer loop
      vertex 16 16 2
      vertex 13 15 2
      vertex 15 15 2
    endloop
  endfacet
  facet normal 0 0 1
    outer loop
      vertex 12 13 2
      vertex 13 13 2
      vertex 13 15 2
    endloop
  endfacet
  facet normal 0 0 1
    outer loop
      vertex 13 13 2
      vertex 12 13 2
      vertex 13 12 2
    endloop
  endfacet
  facet normal 0 0 1
    outer loop
      vertex 13 12 2
      vertex 12 12 2
      vertex 13 10 2
    endloop
  endfacet
  facet normal 0 0 1
    outer loop
      vertex 12 10 2
      vertex 13 10 2
      vertex 12 12 2
    endloop
  endfacet
  facet normal 0 0 1
    outer loop
      vertex 12 9 2
      vertex 13 9 2
      vertex 12 10 2
    endloop
  endfacet
  facet normal 0 0 1
    outer loop
      vertex 13 9 2
      vertex 12 9 2
      vertex 13 7 2
    endloop
  endfacet
  facet normal 0 0 1
    outer loop
      vertex 13 7 2
      vertex 12 7 2
      vertex 13 6 2
    endloop
  endfacet
  facet normal 0 0 1
    outer loop
      vertex 12 6 2
      vertex 13 6 2
      vertex 12 7 2
    endloop
  endfacet
  facet normal 0 0 1
    outer loop
      vertex 12 13 2
      vertex 13 15 2
      vertex 12 15 2
    endloop
  endfacet
  facet normal 0 0 1
    outer loop
      vertex 16 16 2
      vertex 12 15 2
      vertex 13 15 2
    endloop
  endfacet
  facet normal 0 0 1
    outer loop
      vertex 16 16 2
      vertex 10 15 2
      vertex 12 15 2
    endloop
  endfacet
  facet normal 0 0 1
    outer loop
      vertex 9 13 2
      vertex 10 13 2
      vertex 10 15 2
    endloop
  endfacet
  facet normal 0 0 1
    outer loop
      vertex 10 13 2
      vertex 9 13 2
      vertex 10 12 2
    endloop
  endfacet
  facet normal 0 0 1
    outer loop
      vertex 10 12 2
      vertex 9 12 2
      vertex 10 10 2
    endloop
  endfacet
  facet normal 0 0 1
    outer loop
      vertex 9 10 2
      vertex 10 10 2
      vertex 9 12 2
    endloop
  endfacet
  facet normal 0 0 1
    outer loop
      vertex 9 9 2
      vertex 10 9 2
      vertex 9 10 2
    endloop
  endfacet
  facet normal 0 0 1
    outer loop
      vertex 10 9 2
      vertex 9 9 2
      vertex 10 7 2
    endloop
  endfacet
  facet normal 0 0 1
    outer loop
      vertex 10 7 2
      vertex 9 7 2
      vertex 10 6 2
    endloop
  endfacet
  facet normal 0 0 1
    outer loop
      vertex 9 6 2
      vertex 10 6 2
      vertex 9 7 2
    endloop
  endfacet
  facet normal 0 0 1
    outer loop
      vertex 9 13 2
      vertex 10 15 2
      vertex 9 15 2
    endloop
  endfacet
  facet normal 0 0 1
    outer loop
      vertex 16 16 2
      vertex 9 15 2
      vertex 10 15 2
    endloop
  endfacet
  facet normal 0 0 1
    outer loop
      vertex 16 16 2
      vertex 7 15 2
      vertex 9 15 2
    endloop
  endfacet
  facet normal 0 0 1
    outer loop
      vertex 6 13 2
      vertex 7 13 2
      vertex 7 15 2
    endloop
  endfacet
  facet normal 0 0 1
    outer loop
      vertex 7 13 2
      vertex 6 13 2
      vertex 7 12 2
    endloop
  endfacet
  facet normal 0 0 1
    outer loop
      vertex 7 12 2
      vertex 6 12 2
      vertex 7 10 2
    endloop
  endfacet
  facet normal 0 0 1
    outer loop
      vertex 6 10 2
      vertex 7 10 2
      vertex 6 12 2
    endloop
  endfacet
  facet normal 0 0 1
    outer loop
      vertex 6 9 2
      vertex 7 9 2
      vertex 6 10 2
    endloop
  endfacet
  facet normal 0 0 1
    outer loop
      vertex 7 9 2
      vertex 6 9 2
      vertex 7 7 2
    endloop
  endfacet
  facet normal 0 0 1
    outer loop
      vertex 7 7 2
      vertex 6 7 2
      vertex 7 6 2
    endloop
  endfacet
  facet normal 0 0 1
    outer loop
      vertex 6 6 2
      vertex 7 6 2
      vertex 6 7 2
    endloop
  endfacet
  facet normal 0 0 1
    outer loop
      vertex 6 13 2
      vertex 7 15 2
      vertex 6 15 2
    endloop
  endfacet
  facet normal -0 0 1
    outer loop
      vertex 0 16 2
      vertex 7 15 2
      vertex 16 16 2
    endloop
  endfacet
  facet normal 0 0 1
    outer loop
      vertex 7 15 2
      vertex 0 16 2
      vertex 6 15 2
    endloop
  endfacet
  facet normal 0 0 1
    outer loop
      vertex 3 13 2
      vertex 4 13 2
      vertex 4 15 2
    endloop
  endfacet
  facet normal 0 0 1
    outer loop
      vertex 4 13 2
      vertex 3 13 2
      vertex 4 12 2
    endloop
  endfacet
  facet normal 0 0 1
    outer loop
      vertex 4 12 2
      vertex 3 12 2
      vertex 4 10 2
    endloop
  endfacet
  facet normal 0 0 1
    outer loop
      vertex 3 10 2
      vertex 4 10 2
      vertex 3 12 2
    endloop
  endfacet
  facet normal 0 0 1
    outer loop
      vertex 3 9 2
      vertex 4 9 2
      vertex 3 10 2
    endloop
  endfacet
  facet normal 0 0 1
    outer loop
      vertex 4 9 2
      vertex 3 9 2
      vertex 4 7 2
    endloop
  endfacet
  facet normal 0 0 1
    outer loop
      vertex 4 7 2
      vertex 3 7 2
      vertex 4 6 2
    endloop
  endfacet
  facet normal 0 0 1
    outer loop
      vertex 3 6 2
      vertex 4 6 2
      vertex 3 7 2
    endloop
  endfacet
  facet normal 0 0 1
    outer loop
      vertex 3 13 2
      vertex 4 15 2
      vertex 3 15 2
    endloop
  endfacet
  facet normal 0 0 1
    outer loop
      vertex 6 15 2
      vertex 0 16 2
      vertex 4 15 2
    endloop
  endfacet
  facet normal 0 0 1
    outer loop
      vertex 4 15 2
      vertex 0 16 2
      vertex 3 15 2
    endloop
  endfacet
  facet normal 0 0 1
    outer loop
      vertex 0 16 2
      vertex 1 13 2
      vertex 1 15 2
    endloop
  endfacet
  facet normal 0 0 1
    outer loop
      vertex 1 13 2
      vertex 0 16 2
      vertex 1 12 2
    endloop
  endfacet
  facet normal 0 0 1
    outer loop
      vertex 1 12 2
      vertex 0 16 2
      vertex 1 10 2
    endloop
  endfacet
  facet normal 0 0 1
    outer loop
      vertex 1 10 2
      vertex 0 16 2
      vertex 1 9 2
    endloop
  endfacet
  facet normal 0 0 1
    outer loop
      vertex 1 9 2
      vertex 0 16 2
      vertex 1 7 2
    endloop
  endfacet
  facet normal 0 0 1
    outer loop
      vertex 0 0 2
      vertex 1 7 2
      vertex 0 16 2
    endloop
  endfacet
  facet normal 0 0 1
    outer loop
      vertex 1 7 2
      vertex 0 0 2
      vertex 1 6 2
    endloop
  endfacet
  facet normal 0 0 1
    outer loop
      vertex 1 6 2
      vertex 0 0 2
      vertex 1 4 2
    endloop
  endfacet
  facet normal 0 0 1
    outer loop
      vertex 1 4 2
      vertex 0 0 2
      vertex 1 3 2
    endloop
  endfacet
  facet normal 0 0 1
    outer loop
      vertex 3 15 2
      vertex 0 16 2
      vertex 1 15 2
    endloop
  endfacet
  facet normal 0 0 1
    outer loop
      vertex 15 12 2
      vertex 16 16 2
      vertex 15 13 2
    endloop
  endfacet
  facet normal 0 0 1
    outer loop
      vertex 15 10 2
      vertex 16 16 2
      vertex 15 12 2
    endloop
  endfacet
  facet normal 0 0 1
    outer loop
      vertex 15 9 2
      vertex 16 16 2
      vertex 15 10 2
    endloop
  endfacet
  facet normal 0 0 1
    outer loop
      vertex 16 16 2
      vertex 15 9 2
      vertex 16 0 2
    endloop
  endfacet
  facet normal -0 0 1
    outer loop
      vertex 15 7 2
      vertex 16 0 2
      vertex 15 9 2
    endloop
  endfacet
  facet normal -0 0 1
    outer loop
      vertex 15 6 2
      vertex 16 0 2
      vertex 15 7 2
    endloop
  endfacet
  facet normal -0 0 1
    outer loop
      vertex 15 4 2
      vertex 16 0 2
      vertex 15 6 2
    endloop
  endfacet
  facet normal -0 0 1
    outer loop
      vertex 15 3 2
      vertex 16 0 2
      vertex 15 4 2
    endloop
  endfacet
  facet normal -0 0 1
    outer loop
      vertex 15 1 2
      vertex 16 0 2
      vertex 15 3 2
    endloop
  endfacet
  facet normal -0 0 1
    outer loop
      vertex 13 1 2
      vertex 16 0 2
      vertex 15 1 2
    endloop
  endfacet
  facet normal 0 0 1
    outer loop
      vertex 13 12 2
      vertex 12 13 2
      vertex 12 12 2
    endloop
  endfacet
  facet normal 0 0 1
    outer loop
      vertex 13 10 2
      vertex 12 10 2
      vertex 13 9 2
    endloop
  endfacet
  facet normal 0 0 1
    outer loop
      vertex 12 7 2
      vertex 13 7 2
      vertex 12 9 2
    endloop
  endfacet
  facet normal 0 0 1
    outer loop
      vertex 13 6 2
      vertex 12 6 2
      vertex 13 4 2
    endloop
  endfacet
  facet normal 0 0 1
    outer loop
      vertex 12 4 2
      vertex 13 4 2
      vertex 12 6 2
    endloop
  endfacet
  facet normal 0 0 1
    outer loop
      vertex 13 4 2
      vertex 12 4 2
      vertex 13 3 2
    endloop
  endfacet
  facet normal 0 0 1
    outer loop
      vertex 12 3 2
      vertex 13 3 2
      vertex 12 4 2
    endloop
  endfacet
  facet normal 0 0 1
    outer loop
      vertex 13 3 2
      vertex 12 3 2
      vertex 13 1 2
    endloop
  endfacet
  facet normal 0 0 1
    outer loop
      vertex 12 1 2
      vertex 13 1 2
      vertex 12 3 2
    endloop
  endfacet
  facet normal -0 0 1
    outer loop
      vertex 12 1 2
      vertex 16 0 2
      vertex 13 1 2
    endloop
  endfacet
  facet normal -0 0 1
    outer loop
      vertex 10 1 2
      vertex 16 0 2
      vertex 12 1 2
    endloop
  endfacet
  facet normal 0 0 1
    outer loop
      vertex 10 12 2
      vertex 9 13 2
      vertex 9 12 2
    endloop
  endfacet
  facet normal 0 0 1
    outer loop
      vertex 10 10 2
      vertex 9 10 2
      vertex 10 9 2
    endloop
  endfacet
  facet normal 0 0 1
    outer loop
      vertex 9 7 2
      vertex 10 7 2
      vertex 9 9 2
    endloop
  endfacet
  facet normal 0 0 1
    outer loop
      vertex 10 6 2
      vertex 9 6 2
      vertex 10 4 2
    endloop
  endfacet
  facet normal 0 0 1
    outer loop
      vertex 9 4 2
      vertex 10 4 2
      vertex 9 6 2
    endloop
  endfacet
  facet normal 0 0 1
    outer loop
      vertex 10 4 2
      vertex 9 4 2
      vertex 10 3 2
    endloop
  endfacet
  facet normal 0 0 1
    outer loop
      vertex 9 3 2
      vertex 10 3 2
      vertex 9 4 2
    endloop
  endfacet
  facet normal 0 0 1
    outer loop
      vertex 10 3 2
      vertex 9 3 2
      vertex 10 1 2
    endloop
  endfacet
  facet normal 0 0 1
    outer loop
      vertex 9 1 2
      vertex 10 1 2
      vertex 9 3 2
    endloop
  endfacet
  facet normal -0 0 1
    outer loop
      vertex 9 1 2
      vertex 16 0 2
      vertex 10 1 2
    endloop
  endfacet
  facet normal -0 0 1
    outer loop
      vertex 7 1 2
      vertex 16 0 2
      vertex 9 1 2
    endloop
  endfacet
  facet normal 0 0 1
    outer loop
      vertex 7 12 2
      vertex 6 13 2
      vertex 6 12 2
    endloop
  endfacet
  facet normal 0 0 1
    outer loop
      vertex 7 10 2
      vertex 6 10 2
      vertex 7 9 2
    endloop
  endfacet
  facet normal 0 0 1
    outer loop
      vertex 6 7 2
      vertex 7 7 2
      vertex 6 9 2
    endloop
  endfacet
  facet normal 0 0 1
    outer loop
      vertex 7 6 2
      vertex 6 6 2
      vertex 7 4 2
    endloop
  endfacet
  facet normal 0 0 1
    outer loop
      vertex 6 4 2
      vertex 7 4 2
      vertex 6 6 2
    endloop
  endfacet
  facet normal 0 0 1
    outer loop
      vertex 7 4 2
      vertex 6 4 2
      vertex 7 3 2
    endloop
  endfacet
  facet normal 0 0 1
    outer loop
      vertex 6 3 2
      vertex 7 3 2
      vertex 6 4 2
    endloop
  endfacet
  facet normal 0 0 1
    outer loop
      vertex 7 3 2
      vertex 6 3 2
      vertex 7 1 2
    endloop
  endfacet
  facet normal 0 0 1
    outer loop
      vertex 6 1 2
      vertex 7 1 2
      vertex 6 3 2
    endloop
  endfacet
  facet normal 0 0 1
    outer loop
      vertex 0 0 2
      vertex 7 1 2
      vertex 6 1 2
    endloop
  endfacet
  facet normal 0 0 1
    outer loop
      vertex 0 0 2
      vertex 6 1 2
      vertex 4 1 2
    endloop
  endfacet
  facet normal 0 0 1
    outer loop
      vertex 4 12 2
      vertex 3 13 2
      vertex 3 12 2
    endloop
  endfacet
  facet normal 0 0 1
    outer loop
      vertex 4 10 2
      vertex 3 10 2
      vertex 4 9 2
    endloop
  endfacet
  facet normal 0 0 1
    outer loop
      vertex 3 7 2
      vertex 4 7 2
      vertex 3 9 2
    endloop
  endfacet
  facet normal 0 0 1
    outer loop
      vertex 4 6 2
      vertex 3 6 2
      vertex 4 4 2
    endloop
  endfacet
  facet normal 0 0 1
    outer loop
      vertex 3 4 2
      vertex 4 4 2
      vertex 3 6 2
    endloop
  endfacet
  facet normal 0 0 1
    outer loop
      vertex 4 4 2
      vertex 3 4 2
      vertex 4 3 2
    endloop
  endfacet
  facet normal 0 0 1
    outer loop
      vertex 3 3 2
      vertex 4 3 2
      vertex 3 4 2
    endloop
  endfacet
  facet normal 0 0 1
    outer loop
      vertex 4 3 2
      vertex 3 3 2
      vertex 4 1 2
    endloop
  endfacet
  facet normal 0 0 1
    outer loop
      vertex 3 1 2
      vertex 4 1 2
      vertex 3 3 2
    endloop
  endfacet
  facet normal 0 0 1
    outer loop
      vertex 0 0 2
      vertex 4 1 2
      vertex 3 1 2
    endloop
  endfacet
  facet normal 0 0 1
    outer loop
      vertex 0 0 2
      vertex 3 1 2
      vertex 1 1 2
    endloop
  endfacet
  facet normal 0 0 1
    outer loop
      vertex 7 1 2
      vertex 0 0 2
      vertex 16 0 2
    endloop
  endfacet
  facet normal 0 0 1
    outer loop
      vertex 1 3 2
      vertex 0 0 2
      vertex 1 1 2
    endloop
  endfacet
  facet normal -1 0 0
    outer loop
      vertex 3 1 0
      vertex 3 3 2
      vertex 3 3 0
    endloop
  endfacet
  facet normal -1 -0 0
    outer loop
      vertex 3 3 2
      vertex 3 1 0
      vertex 3 1 2
    endloop
  endfacet
  facet normal 0 1 -0
    outer loop
      vertex 3 1 0
      vertex 1 1 2
      vertex 3 1 2
    endloop
  endfacet
  facet normal 0 1 0
    outer loop
      vertex 1 1 2
      vertex 3 1 0
      vertex 1 1 0
    endloop
  endfacet
  facet normal 0 -1 0
    outer loop
      vertex 1 3 0
      vertex 3 3 2
      vertex 1 3 2
    endloop
  endfacet
  facet normal 0 -1 -0
    outer loop
      vertex 3 3 2
      vertex 1 3 0
      vertex 3 3 0
    endloop
  endfacet
  facet normal 1 -0 0
    outer loop
      vertex 4 1 2
      vertex 4 3 0
      vertex 4 3 2
    endloop
  endfacet
  facet normal 1 0 0
    outer loop
      vertex 4 3 0
      vertex 4 1 2
      vertex 4 1 0
    endloop
  endfacet
  facet normal -1 0 0
    outer loop
      vertex 6 1 0
      vertex 6 3 2
      vertex 6 3 0
    endloop
  endfacet
  facet normal -1 -0 0
    outer loop
      vertex 6 3 2
      vertex 6 1 0
      vertex 6 1 2
    endloop
  endfacet
  facet normal 0 -1 0
    outer loop
      vertex 4 3 0
      vertex 6 3 2
      vertex 4 3 2
    endloop
  endfacet
  facet normal 0 -1 -0
    outer loop
      vertex 6 3 2
      vertex 4 3 0
      vertex 6 3 0
    endloop
  endfacet
  facet normal 0 1 -0
    outer loop
      vertex 6 1 0
      vertex 4 1 2
      vertex 6 1 2
    endloop
  endfacet
  facet normal 0 1 0
    outer loop
      vertex 4 1 2
      vertex 6 1 0
      vertex 4 1 0
    endloop
  endfacet
  facet normal 1 -0 0
    outer loop
      vertex 7 1 2
      vertex 7 3 0
      vertex 7 3 2
    endloop
  endfacet
  facet normal 1 0 0
    outer loop
      vertex 7 3 0
      vertex 7 1 2
      vertex 7 1 0
    endloop
  endfacet
  facet normal -1 0 0
    outer loop
      vertex 9 1 0
      vertex 9 3 2
      vertex 9 3 0
    endloop
  endfacet
  facet normal -1 -0 0
    outer loop
      vertex 9 3 2
      vertex 9 1 0
      vertex 9 1 2
    endloop
  endfacet
  facet normal 0 1 -0
    outer loop
      vertex 9 1 0
      vertex 7 1 2
      vertex 9 1 2
    endloop
  endfacet
  facet normal 0 1 0
    outer loop
      vertex 7 1 2
      vertex 9 1 0
      vertex 7 1 0
    endloop
  endfacet
  facet normal 0 -1 0
    outer loop
      vertex 7 3 0
      vertex 9 3 2
      vertex 7 3 2
    endloop
  endfacet
  facet normal 0 -1 -0
    outer loop
      vertex 9 3 2
      vertex 7 3 0
      vertex 9 3 0
    endloop
  endfacet
  facet normal 1 -0 0
    outer loop
      vertex 10 1 2
      vertex 10 3 0
      vertex 10 3 2
    endloop
  endfacet
  facet normal 1 0 0
    outer loop
      vertex 10 3 0
      vertex 10 1 2
      vertex 10 1 0
    endloop
  endfacet
  facet normal -1 0 0
    outer loop
      vertex 12 1 0
      vertex 12 3 2
      vertex 12 3 0
    endloop
  endfacet
  facet normal -1 -0 0
    outer loop
      vertex 12 3 2
      vertex 12 1 0
      vertex 12 1 2
    endloop
  endfacet
  facet normal 0 1 -0
    outer loop
      vertex 12 1 0
      vertex 10 1 2
      vertex 12 1 2
    endloop
  endfacet
  facet normal 0 1 0
    outer loop
      vertex 10 1 2
      vertex 12 1 0
      vertex 10 1 0
    endloop
  endfacet
  facet normal 0 -1 0
    outer loop
      vertex 10 3 0
      vertex 12 3 2
      vertex 10 3 2
    endloop
  endfacet
  facet normal 0 -1 -0
    outer loop
      vertex 12 3 2
      vertex 10 3 0
      vertex 12 3 0
    endloop
  endfacet
  facet normal 1 -0 0
    outer loop
      vertex 13 1 2
      vertex 13 3 0
      vertex 13 3 2
    endloop
  endfacet
  facet normal 1 0 0
    outer loop
      vertex 13 3 0
      vertex 13 1 2
      vertex 13 1 0
    endloop
  endfacet
  facet normal -1 0 0
    outer loop
      vertex 15 1 0
      vertex 15 3 2
      vertex 15 3 0
    endloop
  endfacet
  facet normal -1 -0 0
    outer loop
      vertex 15 3 2
      vertex 15 1 0
      vertex 15 1 2
    endloop
  endfacet
  facet normal 0 -1 0
    outer loop
      vertex 13 3 0
      vertex 15 3 2
      vertex 13 3 2
    endloop
  endfacet
  facet normal 0 -1 -0
    outer loop
      vertex 15 3 2
      vertex 13 3 0
      vertex 15 3 0
    endloop
  endfacet
  facet normal 0 1 -0
    outer loop
      vertex 15 1 0
      vertex 13 1 2
      vertex 15 1 2
    endloop
  endfacet
  facet normal 0 1 0
    outer loop
      vertex 13 1 2
      vertex 15 1 0
      vertex 13 1 0
    endloop
  endfacet
  facet normal 1 -0 0
    outer loop
      vertex 1 4 2
      vertex 1 6 0
      vertex 1 6 2
    endloop
  endfacet
  facet normal 1 0 0
    outer loop
      vertex 1 6 0
      vertex 1 4 2
      vertex 1 4 0
    endloop
  endfacet
  facet normal -1 0 0
    outer loop
      vertex 3 4 0
      vertex 3 6 2
      vertex 3 6 0
    endloop
  endfacet
  facet normal -1 -0 0
    outer loop
      vertex 3 6 2
      vertex 3 4 0
      vertex 3 4 2
    endloop
  endfacet
  facet normal 0 1 -0
    outer loop
      vertex 3 4 0
      vertex 1 4 2
      vertex 3 4 2
    endloop
  endfacet
  facet normal 0 1 0
    outer loop
      vertex 1 4 2
      vertex 3 4 0
      vertex 1 4 0
    endloop
  endfacet
  facet normal 0 -1 0
    outer loop
      vertex 1 6 0
      vertex 3 6 2
      vertex 1 6 2
    endloop
  endfacet
  facet normal 0 -1 -0
    outer loop
      vertex 3 6 2
      vertex 1 6 0
      vertex 3 6 0
    endloop
  endfacet
  facet normal 1 -0 0
    outer loop
      vertex 4 4 2
      vertex 4 6 0
      vertex 4 6 2
    endloop
  endfacet
  facet normal 1 0 0
    outer loop
      vertex 4 6 0
      vertex 4 4 2
      vertex 4 4 0
    endloop
  endfacet
  facet normal -1 0 0
    outer loop
      vertex 6 4 0
      vertex 6 6 2
      vertex 6 6 0
    endloop
  endfacet
  facet normal -1 -0 0
    outer loop
      vertex 6 6 2
      vertex 6 4 0
      vertex 6 4 2
    endloop
  endfacet
  facet normal 0 -1 0
    outer loop
      vertex 4 6 0
      vertex 6 6 2
      vertex 4 6 2
    endloop
  endfacet
  facet normal 0 -1 -0
    outer loop
      vertex 6 6 2
      vertex 4 6 0
      vertex 6 6 0
    endloop
  endfacet
  facet normal 0 1 -0
    outer loop
      vertex 6 4 0
      vertex 4 4 2
      vertex 6 4 2
    endloop
  endfacet
  facet normal 0 1 0
    outer loop
      vertex 4 4 2
      vertex 6 4 0
      vertex 4 4 0
    endloop
  endfacet
  facet normal 1 -0 0
    outer loop
      vertex 7 4 2
      vertex 7 6 0
      vertex 7 6 2
    endloop
  endfacet
  facet normal 1 0 0
    outer loop
      vertex 7 6 0
      vertex 7 4 2
      vertex 7 4 0
    endloop
  endfacet
  facet normal -1 0 0
    outer loop
      vertex 9 4 0
      vertex 9 6 2
      vertex 9 6 0
    endloop
  endfacet
  facet normal -1 -0 0
    outer loop
      vertex 9 6 2
      vertex 9 4 0
      vertex 9 4 2
    endloop
  endfacet
  facet normal 0 1 -0
    outer loop
      vertex 9 4 0
      vertex 7 4 2
      vertex 9 4 2
    endloop
  endfacet
  facet normal 0 1 0
    outer loop
      vertex 7 4 2
      vertex 9 4 0
      vertex 7 4 0
    endloop
  endfacet
  facet normal 0 -1 0
    outer loop
      vertex 7 6 0
      vertex 9 6 2
      vertex 7 6 2
    endloop
  endfacet
  facet normal 0 -1 -0
    outer loop
      vertex 9 6 2
      vertex 7 6 0
      vertex 9 6 0
    endloop
  endfacet
  facet normal 1 -0 0
    outer loop
      vertex 10 4 2
      vertex 10 6 0
      vertex 10 6 2
    endloop
  endfacet
  facet normal 1 0 0
    outer loop
      vertex 10 6 0
      vertex 10 4 2
      vertex 10 4 0
    endloop
  endfacet
  facet normal -1 0 0
    outer loop
      vertex 12 4 0
      vertex 12 6 2
      vertex 12 6 0
    endloop
  endfacet
  facet normal -1 -0 0
    outer loop
      vertex 12 6 2
      vertex 12 4 0
      vertex 12 4 2
    endloop
  endfacet
  facet normal 0 1 -0
    outer loop
      vertex 12 4 0
      vertex 10 4 2
      vertex 12 4 2
    endloop
  endfacet
  facet normal 0 1 0
    outer loop
      vertex 10 4 2
      vertex 12 4 0
      vertex 10 4 0
    endloop
  endfacet
  facet normal 0 -1 0
    outer loop
      vertex 10 6 0
      vertex 12 6 2
      vertex 10 6 2
    endloop
  endfacet
  facet normal 0 -1 -0
    outer loop
      vertex 12 6 2
      vertex 10 6 0
      vertex 12 6 0
    endloop
  endfacet
  facet normal 1 -0 0
    outer loop
      vertex 13 4 2
      vertex 13 6 0
      vertex 13 6 2
    endloop
  endfacet
  facet normal 1 0 0
    outer loop
      vertex 13 6 0
      vertex 13 4 2
      vertex 13 4 0
    endloop
  endfacet
  facet normal -1 0 0
    outer loop
      vertex 15 4 0
      vertex 15 6 2
      vertex 15 6 0
    endloop
  endfacet
  facet normal -1 -0 0
    outer loop
      vertex 15 6 2
      vertex 15 4 0
      vertex 15 4 2
    endloop
  endfacet
  facet normal 0 1 -0
    outer loop
      vertex 15 4 0
      vertex 13 4 2
      vertex 15 4 2
    endloop
  endfacet
  facet normal 0 1 0
    outer loop
      vertex 13 4 2
      vertex 15 4 0
      vertex 13 4 0
    endloop
  endfacet
  facet normal 0 -1 0
    outer loop
      vertex 13 6 0
      vertex 15 6 2
      vertex 13 6 2
    endloop
  endfacet
  facet normal 0 -1 -0
    outer loop
      vertex 15 6 2
      vertex 13 6 0
      vertex 15 6 0
    endloop
  endfacet
  facet normal 1 -0 0
    outer loop
      vertex 1 7 2
      vertex 1 9 0
      vertex 1 9 2
    endloop
  endfacet
  facet normal 1 0 0
    outer loop
      vertex 1 9 0
      vertex 1 7 2
      vertex 1 7 0
    endloop
  endfacet
  facet normal -1 0 0
    outer loop
      vertex 3 7 0
      vertex 3 9 2
      vertex 3 9 0
    endloop
  endfacet
  facet normal -1 -0 0
    outer loop
      vertex 3 9 2
      vertex 3 7 0
      vertex 3 7 2
    endloop
  endfacet
  facet normal 0 1 -0
    outer loop
      vertex 3 7 0
      vertex 1 7 2
      vertex 3 7 2
    endloop
  endfacet
  facet normal 0 1 0
    outer loop
      vertex 1 7 2
      vertex 3 7 0
      vertex 1 7 0
    endloop
  endfacet
  facet normal 0 -1 0
    outer loop
      vertex 1 9 0
      vertex 3 9 2
      vertex 1 9 2
    endloop
  endfacet
  facet normal 0 -1 -0
    outer loop
      vertex 3 9 2
      vertex 1 9 0
      vertex 3 9 0
    endloop
  endfacet
  facet normal 1 -0 0
    outer loop
      vertex 4 7 2
      vertex 4 9 0
      vertex 4 9 2
    endloop
  endfacet
  facet normal 1 0 0
    outer loop
      vertex 4 9 0
      vertex 4 7 2
      vertex 4 7 0
    endloop
  endfacet
  facet normal -1 0 0
    outer loop
      vertex 6 7 0
      vertex 6 9 2
      vertex 6 9 0
    endloop
  endfacet
  facet normal -1 -0 0
    outer loop
      vertex 6 9 2
      vertex 6 7 0
      vertex 6 7 2
    endloop
  endfacet
  facet normal 0 -1 0
    outer loop
      vertex 4 9 0
      vertex 6 9 2
      vertex 4 9 2
    endloop
  endfacet
  facet normal 0 -1 -0
    outer loop
      vertex 6 9 2
      vertex 4 9 0
      vertex 6 9 0
    endloop
  endfacet
  facet normal 0 1 -0
    outer loop
      vertex 6 7 0
      vertex 4 7 2
      vertex 6 7 2
    endloop
  endfacet
  facet normal 0 1 0
    outer loop
      vertex 4 7 2
      vertex 6 7 0
      vertex 4 7 0
    endloop
  endfacet
  facet normal 1 -0 0
    outer loop
      vertex 7 7 2
      vertex 7 9 0
      vertex 7 9 2
    endloop
  endfacet
  facet normal 1 0 0
    outer loop
      vertex 7 9 0
      vertex 7 7 2
      vertex 7 7 0
    endloop
  endfacet
  facet normal -1 0 0
    outer loop
      vertex 9 7 0
      vertex 9 9 2
      vertex 9 9 0
    endloop
  endfacet
  facet normal -1 -0 0
    outer loop
      vertex 9 9 2
      vertex 9 7 0
      vertex 9 7 2
    endloop
  endfacet
  facet normal 0 -1 0
    outer loop
      vertex 7 9 0
      vertex 9 9 2
      vertex 7 9 2
    endloop
  endfacet
  facet normal 0 -1 -0
    outer loop
      vertex 9 9 2
      vertex 7 9 0
      vertex 9 9 0
    endloop
  endfacet
  facet normal 0 1 -0
    outer loop
      vertex 9 7 0
      vertex 7 7 2
      vertex 9 7 2
    endloop
  endfacet
  facet normal 0 1 0
    outer loop
      vertex 7 7 2
      vertex 9 7 0
      vertex 7 7 0
    endloop
  endfacet
  facet normal 1 -0 0
    outer loop
      vertex 10 7 2
      vertex 10 9 0
      vertex 10 9 2
    endloop
  endfacet
  facet normal 1 0 0
    outer loop
      vertex 10 9 0
      vertex 10 7 2
      vertex 10 7 0
    endloop
  endfacet
  facet normal -1 0 0
    outer loop
      vertex 12 7 0
      vertex 12 9 2
      vertex 12 9 0
    endloop
  endfacet
  facet normal -1 -0 0
    outer loop
      vertex 12 9 2
      vertex 12 7 0
      vertex 12 7 2
    endloop
  endfacet
  facet normal 0 1 -0
    outer loop
      vertex 12 7 0
      vertex 10 7 2
      vertex 12 7 2
    endloop
  endfacet
  facet normal 0 1 0
    outer loop
      vertex 10 7 2
      vertex 12 7 0
      vertex 10 7 0
    endloop
  endfacet
  facet normal 0 -1 0
    outer loop
      vertex 10 9 0
      vertex 12 9 2
      vertex 10 9 2
    endloop
  endfacet
  facet normal 0 -1 -0
    outer loop
      vertex 12 9 2
      vertex 10 9 0
      vertex 12 9 0
    endloop
  endfacet
  facet normal 1 -0 0
    outer loop
      vertex 13 7 2
      vertex 13 9 0
      vertex 13 9 2
    endloop
  endfacet
  facet normal 1 0 0
    outer loop
      vertex 13 9 0
      vertex 13 7 2
      vertex 13 7 0
    endloop
  endfacet
  facet normal -1 0 0
    outer loop
      vertex 15 7 0
      vertex 15 9 2
      vertex 15 9 0
    endloop
  endfacet
  facet normal -1 -0 0
    outer loop
      vertex 15 9 2
      vertex 15 7 0
      vertex 15 7 2
    endloop
  endfacet
  facet normal 0 1 -0
    outer loop
      vertex 15 7 0
      vertex 13 7 2
      vertex 15 7 2
    endloop
  endfacet
  facet normal 0 1 0
    outer loop
      vertex 13 7 2
      vertex 15 7 0
      vertex 13 7 0
    endloop
  endfacet
  facet normal 0 -1 0
    outer loop
      vertex 13 9 0
      vertex 15 9 2
      vertex 13 9 2
    endloop
  endfacet
  facet normal 0 -1 -0
    outer loop
      vertex 15 9 2
      vertex 13 9 0
      vertex 15 9 0
    endloop
  endfacet
  facet normal 1 -0 0
    outer loop
      vertex 1 10 2
      vertex 1 12 0
      vertex 1 12 2
    endloop
  endfacet
  facet normal 1 0 0
    outer loop
      vertex 1 12 0
      vertex 1 10 2
      vertex 1 10 0
    endloop
  endfacet
  facet normal -1 0 0
    outer loop
      vertex 3 10 0
      vertex 3 12 2
      vertex 3 12 0
    endloop
  endfacet
  facet normal -1 -0 0
    outer loop
      vertex 3 12 2
      vertex 3 10 0
      vertex 3 10 2
    endloop
  endfacet
  facet normal 0 1 -0
    outer loop
      vertex 3 10 0
      vertex 1 10 2
      vertex 3 10 2
    endloop
  endfacet
  facet normal 0 1 0
    outer loop
      vertex 1 10 2
      vertex 3 10 0
      vertex 1 10 0
    endloop
  endfacet
  facet normal 0 -1 0
    outer loop
      vertex 1 12 0
      vertex 3 12 2
      vertex 1 12 2
    endloop
  endfacet
  facet normal 0 -1 -0
    outer loop
      vertex 3 12 2
      vertex 1 12 0
      vertex 3 12 0
    endloop
  endfacet
  facet normal 1 -0 0
    outer loop
      vertex 4 10 2
      vertex 4 12 0
      vertex 4 12 2
    endloop
  endfacet
  facet normal 1 0 0
    outer loop
      vertex 4 12 0
      vertex 4 10 2
      vertex 4 10 0
    endloop
  endfacet
  facet normal -1 0 0
    outer loop
      vertex 6 10 0
      vertex 6 12 2
      vertex 6 12 0
    endloop
  endfacet
  facet normal -1 -0 0
    outer loop
      vertex 6 12 2
      vertex 6 10 0
      vertex 6 10 2
    endloop
  endfacet
  facet normal 0 -1 0
    outer loop
      vertex 4 12 0
      vertex 6 12 2
      vertex 4 12 2
    endloop
  endfacet
  facet normal 0 -1 -0
    outer loop
      vertex 6 12 2
      vertex 4 12 0
      vertex 6 12 0
    endloop
  endfacet
  facet normal 0 1 -0
    outer loop
      vertex 6 10 0
      vertex 4 10 2
      vertex 6 10 2
    endloop
  endfacet
  facet normal 0 1 0
    outer loop
      vertex 4 10 2
      vertex 6 10 0
      vertex 4 10 0
    endloop
  endfacet
  facet normal 1 -0 0
    outer loop
      vertex 7 10 2
      vertex 7 12 0
      vertex 7 12 2
    endloop
  endfacet
  facet normal 1 0 0
    outer loop
      vertex 7 12 0
      vertex 7 10 2
      vertex 7 10 0
    endloop
  endfacet
  facet normal -1 0 0
    outer loop
      vertex 9 10 0
      vertex 9 12 2
      vertex 9 12 0
    endloop
  endfacet
  facet normal -1 -0 0
    outer loop
      vertex 9 12 2
      vertex 9 10 0
      vertex 9 10 2
    endloop
  endfacet
  facet normal 0 1 -0
    outer loop
      vertex 9 10 0
      vertex 7 10 2
      vertex 9 10 2
    endloop
  endfacet
  facet normal 0 1 0
    outer loop
      vertex 7 10 2
      vertex 9 10 0
      vertex 7 10 0
    endloop
  endfacet
  facet normal 0 -1 0
    outer loop
      vertex 7 12 0
      vertex 9 12 2
      vertex 7 12 2
    endloop
  endfacet
  facet normal 0 -1 -0
    outer loop
      vertex 9 12 2
      vertex 7 12 0
      vertex 9 12 0
    endloop
  endfacet
  facet normal 1 -0 0
    outer loop
      vertex 10 10 2
      vertex 10 12 0
      vertex 10 12 2
    endloop
  endfacet
  facet normal 1 0 0
    outer loop
      vertex 10 12 0
      vertex 10 10 2
      vertex 10 10 0
    endloop
  endfacet
  facet normal -1 0 0
    outer loop
      vertex 12 10 0
      vertex 12 12 2
      vertex 12 12 0
    endloop
  endfacet
  facet normal -1 -0 0
    outer loop
      vertex 12 12 2
      vertex 12 10 0
      vertex 12 10 2
    endloop
  endfacet
  facet normal 0 -1 0
    outer loop
      vertex 10 12 0
      vertex 12 12 2
      vertex 10 12 2
    endloop
  endfacet
  facet normal 0 -1 -0
    outer loop
      vertex 12 12 2
      vertex 10 12 0
      vertex 12 12 0
    endloop
  endfacet
  facet normal 0 1 -0
    outer loop
      vertex 12 10 0
      vertex 10 10 2
      vertex 12 10 2
    endloop
  endfacet
  facet normal 0 1 0
    outer loop
      vertex 10 10 2
      vertex 12 10 0
      vertex 10 10 0
    endloop
  endfacet
  facet normal 1 -0 0
    outer loop
      vertex 13 10 2
      vertex 13 12 0
      vertex 13 12 2
    endloop
  endfacet
  facet normal 1 0 0
    outer loop
      vertex 13 12 0
      vertex 13 10 2
      vertex 13 10 0
    endloop
  endfacet
  facet normal -1 0 0
    outer loop
      vertex 15 10 0
      vertex 15 12 2
      vertex 15 12 0
    endloop
  endfacet
  facet normal -1 -0 0
    outer loop
      vertex 15 12 2
      vertex 15 10 0
      vertex 15 10 2
    endloop
  endfacet
  facet normal 0 -1 0
    outer loop
      vertex 13 12 0
      vertex 15 12 2
      vertex 13 12 2
    endloop
  endfacet
  facet normal 0 -1 -0
    outer loop
      vertex 15 12 2
      vertex 13 12 0
      vertex 15 12 0
    endloop
  endfacet
  facet normal 0 1 -0
    outer loop
      vertex 15 10 0
      vertex 13 10 2
      vertex 15 10 2
    endloop
  endfacet
  facet normal 0 1 0
    outer loop
      vertex 13 10 2
      vertex 15 10 0
      vertex 13 10 0
    endloop
  endfacet
  facet normal 1 -0 0
    outer loop
      vertex 1 13 2
      vertex 1 15 0
      vertex 1 15 2
    endloop
  endfacet
  facet normal 1 0 0
    outer loop
      vertex 1 15 0
      vertex 1 13 2
      vertex 1 13 0
    endloop
  endfacet
  facet normal -1 0 0
    outer loop
      vertex 3 13 0
      vertex 3 15 2
      vertex 3 15 0
    endloop
  endfacet
  facet normal -1 -0 0
    outer loop
      vertex 3 15 2
      vertex 3 13 0
      vertex 3 13 2
    endloop
  endfacet
  facet normal 0 -1 0
    outer loop
      vertex 1 15 0
      vertex 3 15 2
      vertex 1 15 2
    endloop
  endfacet
  facet normal 0 -1 -0
    outer loop
      vertex 3 15 2
      vertex 1 15 0
      vertex 3 15 0
    endloop
  endfacet
  facet normal 0 1 -0
    outer loop
      vertex 3 13 0
      vertex 1 13 2
      vertex 3 13 2
    endloop
  endfacet
  facet normal 0 1 0
    outer loop
      vertex 1 13 2
      vertex 3 13 0
      vertex 1 13 0
    endloop
  endfacet
  facet normal 1 -0 0
    outer loop
      vertex 4 13 2
      vertex 4 15 0
      vertex 4 15 2
    endloop
  endfacet
  facet normal 1 0 0
    outer loop
      vertex 4 15 0
      vertex 4 13 2
      vertex 4 13 0
    endloop
  endfacet
  facet normal -1 0 0
    outer loop
      vertex 6 13 0
      vertex 6 15 2
      vertex 6 15 0
    endloop
  endfacet
  facet normal -1 -0 0
    outer loop
      vertex 6 15 2
      vertex 6 13 0
      vertex 6 13 2
    endloop
  endfacet
  facet normal 0 -1 0
    outer loop
      vertex 4 15 0
      vertex 6 15 2
      vertex 4 15 2
    endloop
  endfacet
  facet normal 0 -1 -0
    outer loop
      vertex 6 15 2
      vertex 4 15 0
      vertex 6 15 0
    endloop
  endfacet
  facet normal 0 1 -0
    outer loop
      vertex 6 13 0
      vertex 4 13 2
      vertex 6 13 2
    endloop
  endfacet
  facet normal 0 1 0
    outer loop
      vertex 4 13 2
      vertex 6 13 0
      vertex 4 13 0
    endloop
  endfacet
  facet normal 1 -0 0
    outer loop
      vertex 7 13 2
      vertex 7 15 0
      vertex 7 15 2
    endloop
  endfacet
  facet normal 1 0 0
    outer loop
      vertex 7 15 0
      vertex 7 13 2
      vertex 7 13 0
    endloop
  endfacet
  facet normal -1 0 0
    outer loop
      vertex 9 13 0
      vertex 9 15 2
      vertex 9 15 0
    endloop
  endfacet
  facet normal -1 -0 0
    outer loop
      vertex 9 15 2
      vertex 9 13 0
      vertex 9 13 2
    endloop
  endfacet
  facet normal 0 -1 0
    outer loop
      vertex 7 15 0
      vertex 9 15 2
      vertex 7 15 2
    endloop
  endfacet
  facet normal 0 -1 -0
    outer loop
      vertex 9 15 2
      vertex 7 15 0
      vertex 9 15 0
    endloop
  endfacet
  facet normal 0 1 -0
    outer loop
      vertex 9 13 0
      vertex 7 13 2
      vertex 9 13 2
    endloop
  endfacet
  facet normal 0 1 0
    outer loop
      vertex 7 13 2
      vertex 9 13 0
      vertex 7 13 0
    endloop
  endfacet
  facet normal 1 -0 0
    outer loop
      vertex 10 13 2
      vertex 10 15 0
      vertex 10 15 2
    endloop
  endfacet
  facet normal 1 0 0
    outer loop
      vertex 10 15 0
      vertex 10 13 2
      vertex 10 13 0
    endloop
  endfacet
  facet normal -1 0 0
    outer loop
      vertex 12 13 0
      vertex 12 15 2
      vertex 12 15 0
    endloop
  endfacet
  facet normal -1 -0 0
    outer loop
      vertex 12 15 2
      vertex 12 13 0
      vertex 12 13 2
    endloop
  endfacet
  facet normal 0 -1 0
    outer loop
      vertex 10 15 0
      vertex 12 15 2
      vertex 10 15 2
    endloop
  endfacet
  facet normal 0 -1 -0
    outer loop
      vertex 12 15 2
      vertex 10 15 0
      vertex 12 15 0
    endloop
  endfacet
  facet normal 0 1 -0
    outer loop
      vertex 12 13 0
      vertex 10 13 2
      vertex 12 13 2
    endloop
  endfacet
  facet normal 0 1 0
    outer loop
      vertex 10 13 2
      vertex 12 13 0
      vertex 10 13 0
    endloop
  endfacet
  facet normal 1 -0 0
    outer loop
      vertex 13 13 2
      vertex 13 15 0
      vertex 13 15 2
    endloop
  endfacet
  facet normal 1 0 0
    outer loop
      vertex 13 15 0
      vertex 13 13 2
      vertex 13 13 0
    endloop
  endfacet
  facet normal -1 0 0
    outer loop
      vertex 15 13 0
      vertex 15 15 2
      vertex 15 15 0
    endloop
  endfacet
  facet normal -1 -0 0
    outer loop
      vertex 15 15 2
      vertex 15 13 0
      vertex 15 13 2
    endloop
  endfacet
  facet normal 0 1 -0
    outer loop
      vertex 15 13 0
      vertex 13 13 2
      vertex 15 13 2
    endloop
  endfacet
  facet normal 0 1 0
    outer loop
      vertex 13 13 2
      vertex 15 13 0
      vertex 13 13 0
    endloop
  endfacet
  facet normal 0 -1 0
    outer loop
      vertex 13 15 0
      vertex 15 15 2
      vertex 13 15 2
    endloop
  endfacet
  facet normal 0 -1 -0
    outer loop
      vertex 15 15 2
      vertex 13 15 0
      vertex 15 15 0
    endloop
  endfacet
endsolid OpenSCAD_Model
